{
  "accessors": [
    {
      "bufferView": 2,
      "componentType": 5126,
      "count": 2984,
      "max": [
        11.299108505249023,
        11.243911743164062,
        16.985319137573242
      ],
      "min": [
        -11.299095153808594,
        -11.243907928466797,
        -16.985311508178711
      ],
      "type": "VEC3"
    },
    {
      "bufferView": 2,
      "byteOffset": 35808,
      "componentType": 5126,
      "count": 2984,
      "max": [
        0.99990552663803101,
        0.99997079372406006,
        0.99916660785675049
      ],
      "min": [
        -0.99985277652740479,
        -0.99972313642501831,
        -0.99996626377105713
      ],
      "type": "VEC3"
    },
    {
      "bufferView": 3,
      "componentType": 5126,
      "count": 2984,
      "max": [
        0.98887163400650024,
        0.99106383323669434,
        0.99999916553497314,
        1
      ],
      "min": [
        -0.99033647775650024,
        -0.98244249820709229,
        -0.99996906518936157,
        -1
      ],
      "type": "VEC4"
    },
    {
      "bufferView": 1,
      "componentType": 5126,
      "count": 2984,
      "max": [
        0.99848955869674683,
        0.99986189603805542
      ],
      "min": [
        0.00015654598246328533,
        0.00016939640045166016
      ],
      "type": "VEC2"
    },
    {
      "bufferView": 0,
      "componentType": 5125,
      "count": 16992,
      "max": [
        2983
      ],
      "min": [
        0
      ],
      "type": "SCALAR"
    },
    {
      "bufferView": 2,
      "byteOffset": 71616,
      "componentType": 5126,
      "count": 2984,
      "max": [
        11.299108505249023,
        11.243911743164062,
        16.985319137573242
      ],
      "min": [
        -11.299095153808594,
        -11.243907928466797,
        -16.985311508178711
      ],
      "type": "VEC3"
    },
    {
      "bufferView": 2,
      "byteOffset": 107424,
      "componentType": 5126,
      "count": 2984,
      "max": [
        0.99990552663803101,
        0.99997079372406006,
        0.99916660785675049
      ],
      "min": [
        -0.99985277652740479,
        -0.99972313642501831,
        -0.99996626377105713
      ],
      "type": "VEC3"
    },
    {
      "bufferView": 3,
      "byteOffset": 47744,
      "componentType": 5126,
      "count": 2984,
      "max": [
        0.98887163400650024,
        0.99106383323669434,
        0.99999916553497314,
        1
      ],
      "min": [
        -0.99033647775650024,
        -0.98244249820709229,
        -0.99996906518936157,
        -1
      ],
      "type": "VEC4"
    },
    {
      "bufferView": 1,
      "byteOffset": 23872,
      "componentType": 5126,
      "count": 2984,
      "max": [
        0.99848955869674683,
        0.99986189603805542
      ],
      "min": [
        0.00015654598246328533,
        0.00016939640045166016
      ],
      "type": "VEC2"
    },
    {
      "bufferView": 0,
      "byteOffset": 67968,
      "componentType": 5125,
      "count": 16992,
      "max": [
        2983
      ],
      "min": [
        0
      ],
      "type": "SCALAR"
    },
    {
      "bufferView": 2,
      "byteOffset": 143232,
      "componentType": 5126,
      "count": 64,
      "max": [
        120.57621765136719,
        120.57621765136719,
        0
      ],
      "min": [
        -120.57621765136719,
        -120.57621765136719,
        0
      ],
      "type": "VEC3"
    },
    {
      "bufferView": 2,
      "byteOffset": 144000,
      "componentType": 5126,
      "count": 64,
      "max": [
        0,
        0,
        1
      ],
      "min": [
        0,
        0,
        1
      ],
      "type": "VEC3"
    },
    {
      "bufferView": 3,
      "byteOffset": 95488,
      "componentType": 5126,
      "count": 64,
      "max": [
        1,
        7.1510231691718218e-07,
        0,
        1
      ],
      "min": [
        1,
        -4.2562305679894052e-06,
        0,
        1
      ],
      "type": "VEC4"
    },
    {
      "bufferView": 1,
      "byteOffset": 47744,
      "componentType": 5126,
      "count": 64,
      "max": [
        0.99214786291122437,
        0.99214786291122437
      ],
      "min": [
        0.0078521370887756348,
        0.0078521370887756348
      ],
      "type": "VEC2"
    },
    {
      "bufferView": 0,
      "byteOffset": 135936,
      "componentType": 5125,
      "count": 186,
      "max": [
        63
      ],
      "min": [
        0
      ],
      "type": "SCALAR"
    }
  ],
  "asset": {
    "extras": {
      "author": "3dhdscan (https://sketchfab.com/3dhdscan)",
      "license": "CC-BY-4.0 (http://creativecommons.org/licenses/by/4.0/)",
      "source": "https://sketchfab.com/models/20f1ebee339a4b46b9e547782e2aaba9",
      "title": "Old tin barrel"
    },
    "generator": "Sketchfab-3.30.1",
    "version": "2.0"
  },
  "bufferViews": [
    {
      "buffer": 0,
      "byteLength": 136680,
      "byteOffset": 0,
      "name": "floatBufferViews",
      "target": 34963
    },
    {
      "buffer": 0,
      "byteLength": 48256,
      "byteOffset": 136680,
      "byteStride": 8,
      "name": "floatBufferViews",
      "target": 34962
    },
    {
      "buffer": 0,
      "byteLength": 144768,
      "byteOffset": 184936,
      "byteStride": 12,
      "name": "floatBufferViews",
      "target": 34962
    },
    {
      "buffer": 0,
      "byteLength": 96512,
      "byteOffset": 329704,
      "byteStride": 16,
      "name": "floatBufferViews",
      "target": 34962
    }
  ],
  "buffers": [
    {
      "byteLength": 426216,
      "uri": "scene.bin"
    }
  ],
  "extensionsRequired": [
    "KHR_materials_pbrSpecularGlossiness"
  ],
  "extensionsUsed": [
    "KHR_materials_pbrSpecularGlossiness"
  ],
  "images": [
    {
      "uri": "textures/sud_low_shadow_diffuse.png"
    },
    {
      "uri": "textures/sud_low_albedo_occlusion.png"
    },
    {
      "uri": "textures/sud_low_albedo_specularGlossiness.png"
    },
    {
      "uri": "textures/sud_low_albedo_normal.jpeg"
    },
    {
      "uri": "textures/sud_low_albedo_diffuse.jpeg"
    }
  ],
  "materials": [
    {
      "doubleSided": false,
      "extensions": {
        "KHR_materials_pbrSpecularGlossiness": {
          "diffuseFactor": [
            1,
            1,
            1,
            1
          ],
          "diffuseTexture": {
            "index": 4,
            "texCoord": 0
          },
          "glossinessFactor": 1,
          "specularFactor": [
            0.129115018,
            0.129115018,
            0.129115018
          ],
          "specularGlossinessTexture": {
            "index": 2,
            "texCoord": 0
          }
        }
      },
      "name": "sud_low_albedo",
      "normalTexture": {
        "index": 3,
        "scale": 1,
        "texCoord": 0
      },
      "occlusionTexture": {
        "index": 1,
        "strength": 1,
        "texCoord": 0
      }
    },
    {
      "alphaMode": "BLEND",
      "doubleSided": false,
      "extensions": {
        "KHR_materials_pbrSpecularGlossiness": {
          "diffuseFactor": [
            0,
            0,
            0,
            1
          ],
          "diffuseTexture": {
            "index": 0,
            "texCoord": 0
          },
          "glossinessFactor": 0,
          "specularFactor": [
            0,
            0,
            0
          ]
        }
      },
      "name": "sud_low_shadow"
    }
  ],
  "meshes": [
    {
      "name": "sud_low_sud_low_albedo_0",
      "primitives": [
        {
          "attributes": {
            "NORMAL": 1,
            "POSITION": 0,
            "TANGENT": 2,
            "TEXCOORD_0": 3
          },
          "indices": 4,
          "material": 0,
          "mode": 4
        }
      ]
    },
    {
      "name": "sud_low001_sud_low_albedo_0",
      "primitives": [
        {
          "attributes": {
            "NORMAL": 6,
            "POSITION": 5,
            "TANGENT": 7,
            "TEXCOORD_0": 8
          },
          "indices": 9,
          "material": 0,
          "mode": 4
        }
      ]
    },
    {
      "name": "sud_low_shadow_sud_low_shadow_0",
      "primitives": [
        {
          "attributes": {
            "NORMAL": 11,
            "POSITION": 10,
            "TANGENT": 12,
            "TEXCOORD_0": 13
          },
          "indices": 14,
          "material": 1,
          "mode": 4
        }
      ]
    }
  ],
  "nodes": [
    {
      "children": [
        1
      ],
      "name": "RootNode (gltf orientation matrix)",
      "rotation": [
        -0.70710678118654746,
        -0,
        -0,
        0.70710678118654757
      ]
    },
    {
      "children": [
        2
      ],
      "name": "RootNode (model correction matrix)"
    },
    {
      "children": [
        3
      ],
      "matrix": [
        1,
        0,
        0,
        0,
        0,
        0,
        1,
        0,
        0,
        -1,
        0,
        0,
        0,
        0,
        0,
        1
      ],
      "name": "plechovy_sud.FBX"
    },
    {
      "children": [
        4,
        6,
        8
      ],
      "name": "RootNode"
    },
    {
      "children": [
        5
      ],
      "matrix": [
        0.0099999997764825821,
        0,
        0,
        0,
        0,
        2.2204459996194763e-18,
        -0.0099999997764825821,
        0,
        0,
        0.0099999997764825821,
        2.2204459996194763e-18,
        0,
        0,
        0.17205958068370819,
        -4.1106989340233824e-11,
        1
      ],
      "name": "sud_low"
    },
    {
      "mesh": 0,
      "name": "sud_low_sud_low_albedo_0"
    },
    {
      "children": [
        7
      ],
      "matrix": [
        -0.0042261858548950509,
        -0.0090630761140760956,
        -1.0725118365263558e-18,
        0,
        -0.0090630761140760869,
        0.0042261858548950475,
        4.3711388764444528e-10,
        0,
        -3.9615965182572621e-10,
        1.8473245799523175e-10,
        -0.0099999997764825734,
        0,
        0.26178383827209473,
        0.11499163508415222,
        -3.6938885283888112e-10,
        1
      ],
      "name": "sud_low001"
    },
    {
      "mesh": 1,
      "name": "sud_low001_sud_low_albedo_0"
    },
    {
      "children": [
        9
      ],
      "matrix": [
        0.0099999997764825821,
        0,
        0,
        0,
        0,
        2.2204459996194763e-18,
        -0.0099999997764825821,
        0,
        0,
        0.0099999997764825821,
        2.2204459996194763e-18,
        0,
        0.13370862603187561,
        0,
        0.0063361646607518196,
        1
      ],
      "name": "sud_low_shadow"
    },
    {
      "mesh": 2,
      "name": "sud_low_shadow_sud_low_shadow_0"
    }
  ],
  "samplers": [
    {
      "magFilter": 9729,
      "minFilter": 9987,
      "wrapS": 10497,
      "wrapT": 10497
    },
    {
      "magFilter": 9729,
      "minFilter": 9987,
      "wrapS": 33071,
      "wrapT": 33071
    }
  ],
  "scene": 0,
  "scenes": [
    {
      "name": "OSG_Scene",
      "nodes": [
        0
      ]
    }
  ],
  "textures": [
    {
      "sampler": 0,
      "source": 0
    },
    {
      "sampler": 1,
      "source": 1
    },
    {
      "sampler": 0,
      "source": 2
    },
    {
      "sampler": 1,
      "source": 3
    },
    {
      "sampler": 1,
      "source": 4
    }
  ]
}

